PathFileType	4	(X/Y/Z)	C:\Users\WrightLab\Desktop\Jo\P2_Trial23.trc
DataRate	CameraRate	NumFrames	NumMarkers	Units	OrigDataRate	OrigDataStartFrame	OrigNumFrames
100.00	100.00	      15	19	mm	100.00	457	      1217
Frame#	Time	Headset_Front			Headset_Back			Headset_Left			Headset_Right			Left_Shoulder			Right_Shoulder			Sternum			C7			Left Elbow			Right Elbow			Left Wrist			Right Wrist			Left ASIS			Right ASIS			S2			Left Knee			Right Knee			Left Ankle			Right Ankle			
		X1	Y1	Z1	X2	Y2	Z2	X3	Y3	Z3	X4	Y4	Z4	X5	Y5	Z5	X6	Y6	Z6	X7	Y7	Z7	X8	Y8	Z8	X9	Y9	Z9	X10	Y10	Z10	X11	Y11	Z11	X12	Y12	Z12	X13	Y13	Z13	X14	Y14	Z14	X15	Y15	Z15	X16	Y16	Z16	X17	Y17	Z17	X18	Y18	Z18	X19	Y19	Z19	

457	4.560	110.71659	1360.42786	1315.55750	229.77075	1453.23218	1317.19104	35.27529	1522.81287	1421.44067	166.23546	1353.57153	1285.85718	347.27451	1450.36304	1532.73840				158.46921	1642.92590	1420.59045	198.04535	1482.01331	1641.32690	-91.87563	1111.06372	1656.41223				-101.56403	882.41022	1663.60889	468.74060	920.89258	1718.14648	127.87510	1051.33325	1578.41687	259.33313	1018.47229	1592.57410	149.00737	1021.68860	1847.30505	30.61485	516.90765	1609.04065	334.81000	574.57837	1812.88037	28.52780	175.22151	1523.64880	281.76910	143.09042	1858.27625	
458	4.570	109.33511	1362.25659	1311.12329	229.58075	1455.20300	1313.49890	34.23585	1524.40344	1418.18640	165.09261	1353.84229	1282.18005	346.34399	1450.16528	1528.80554				158.58069	1644.44751	1418.06921	197.08226	1481.57581	1638.24658	-93.42085	1110.58362	1651.34216	450.83157	1170.73987	1694.95227	-102.55179	880.38843	1658.59106	469.39972	918.86597	1710.76147	127.22437	1050.14136	1572.21692	258.53915	1018.22382	1586.00330	148.59903	1019.50372	1840.16162	32.83583	515.00391	1600.43481	335.18790	573.34436	1807.71375	31.79285	175.27676	1510.76440	282.02597	142.97441	1857.90430	
459	4.580	106.91309	1364.20801	1307.39453	228.36302	1456.84302	1310.21021	33.49599	1526.20520	1414.80273	163.67497	1353.84363	1279.55078	345.33478	1449.95447	1524.33545				158.24005	1645.36145	1416.08960	196.26230	1480.88147	1634.14099	-95.59082	1108.72839	1643.70081	450.69537	1169.47327	1686.13293	-103.42368	878.35376	1653.28833	469.38074	917.85022	1703.49524	126.95509	1049.71582	1566.07422	256.98462	1017.53210	1578.37695	148.58630	1017.74341	1834.01062	34.23225	513.39764	1594.53625	335.58325	573.20917	1802.73511	35.12929	174.98997	1498.48291	282.41312	142.89442	1857.33838	
460	4.590	104.60081	1366.66858	1303.88049	226.40086	1457.32239	1306.61768	32.55169	1527.49866	1411.86938	162.31279	1353.78125	1275.85425	343.57132	1450.58691	1520.24365				158.04507	1646.59204	1413.03320	195.71053	1479.57715	1631.06921	-95.57775	1109.70398	1641.70313	450.36139	1168.16968	1680.01697	-103.87879	877.22943	1647.64685	469.79712	916.33319	1696.91736	125.86545	1049.80627	1559.64551	255.99115	1017.13092	1570.86621	149.10783	1015.38605	1826.44226	36.03691	511.90128	1585.75513	336.68005	572.18866	1798.41064	37.87908	174.67668	1486.77258	283.14832	141.95041	1854.26855	
461	4.600	103.36678	1368.69556	1299.72119	225.68254	1460.06067	1304.63269	31.45559	1529.33105	1408.66663	161.08017	1353.75525	1272.69617	342.34558	1449.92603	1515.93030				157.44087	1647.47388	1410.53210	194.72035	1478.87170	1628.06470	-96.76337	1109.11169	1635.38135	449.83475	1167.02747	1672.18567	-105.33514	875.76312	1642.21191	470.13611	914.99213	1688.48828	124.21161	1049.20581	1550.39636	254.99358	1016.79016	1562.66199	148.68953	1012.99512	1818.57727	37.73172	510.11737	1579.28845	336.71503	571.76251	1793.34778	40.56527	174.10347	1475.73926	283.81131	141.18542	1854.78687	
462	4.610	101.73740	1370.85950	1295.79431	223.43066	1461.09302	1300.19629	30.16894	1531.47632	1406.53894	159.84825	1353.83179	1269.02063	339.77222	1449.82776	1511.84290				156.25554	1649.39661	1409.44897	193.32330	1477.82617	1624.87158	-98.19714	1107.87439	1630.84412	449.02844	1165.63501	1665.78259	-106.21375	873.80762	1636.55750	470.39679	913.34601	1679.72363	123.80077	1048.21948	1543.87317	254.93417	1016.72888	1553.96899	148.89348	1009.63403	1809.72742	39.09694	508.05591	1570.85620	337.32968	570.91101	1789.03503	42.85745	172.90793	1466.60034	284.27283	141.26009	1854.10400	
463	4.620	100.20105	1373.05505	1291.60144	222.72955	1463.19897	1297.62244	28.98406	1533.12927	1403.24268	158.32071	1353.80078	1265.37939	338.83908	1450.84924	1508.28784				155.41158	1650.85425	1408.06885	192.18140	1476.30994	1621.87854	-99.15929	1107.17078	1625.01892	448.14560	1164.57446	1658.11316	-107.80000	872.76440	1631.74939	470.83072	912.06287	1672.70459	122.76926	1048.50000	1534.39893	253.17444	1016.35144	1545.18591	148.75011	1006.69055	1800.98328	41.26670	505.96292	1562.07764	337.80426	570.54022	1782.68457	44.82190	171.93567	1452.61096	284.67715	141.18277	1853.51355	
464	4.630	98.12070	1375.53296	1288.03406	220.79617	1466.07275	1293.93066	27.96318	1534.85193	1400.65100	156.48982	1353.84558	1262.14465	337.63937	1450.57959	1504.63135				154.64467	1651.77368	1404.99097	190.34132	1474.60266	1618.10193	-101.22211	1104.63281	1616.89124	446.94281	1162.54663	1649.17615	-108.73372	871.12854	1624.41504	471.27078	909.88580	1665.25098	122.47215	1047.57764	1526.15442	252.34715	1016.21002	1537.12976	148.31158	1003.79669	1792.64636	41.56794	502.12842	1555.44971	338.20798	569.63904	1778.22375	46.94177	169.47661	1443.90808	285.07669	141.20955	1852.92419	
465	4.640	96.70460	1378.48682	1283.75342	220.08553	1468.34790	1291.35229	26.22209	1536.52161	1397.64868	154.77928	1354.11316	1257.96106	335.27490	1450.47778	1501.34717	6.37177	1439.60693	1517.31494	153.46782	1653.45386	1404.11316	188.65567	1473.18774	1614.40222	-101.25153	1104.36511	1613.83264	446.11496	1161.35876	1642.39551	-110.16930	868.61932	1618.97485	472.22321	908.47125	1657.50171	121.73116	1046.40771	1518.50122	252.32773	1015.35999	1528.86084	147.84996	1000.58759	1784.11902	42.72697	498.76743	1548.27063	338.56760	569.10864	1772.27405	49.30837	167.24139	1434.60620	285.76468	141.16525	1851.76245	
466	4.650	95.22357	1381.21375	1279.45264	218.97742	1471.08386	1287.89392	24.80856	1538.87830	1394.97034	153.31667	1354.17981	1254.97205	333.88824	1450.81616	1497.65515							186.77238	1472.15125	1611.49072	-101.85963	1103.04590	1606.81604	444.93829	1159.95129	1635.99255	-111.58233	866.18414	1613.60718	472.19748	907.39563	1648.54626	121.34545	1045.34363	1511.47729	251.77464	1014.83466	1520.02661	146.78233	998.09839	1775.42957	43.70123	495.25589	1540.19470	339.07721	568.02118	1768.24194	51.63046	164.61592	1425.77478	286.30139	140.97934	1851.73926	
467	4.660	93.50970	1384.49536	1274.83801	215.41586	1472.30554	1283.66699	23.21006	1540.45020	1391.42017	151.45592	1354.42236	1251.02966										184.96964	1471.05164	1608.44885	-102.82964	1101.37292	1600.89404	443.69254	1158.88171	1628.95325	-112.91490	864.19672	1606.73767	472.56235	905.76971	1640.44397	121.26770	1044.08643	1502.87512	251.67850	1014.46405	1511.00439	145.15195	995.64063	1767.42786	44.75953	492.33444	1532.80994	339.06778	567.04370	1762.20874	54.08900	161.31987	1418.69153	287.30835	141.29887	1850.08435	
468	4.670	92.05898	1387.85681	1269.91797	215.93448	1477.26514	1281.92834	21.36710	1542.86182	1388.90515				0.94963	1435.56543	1503.56348	330.10229	1451.51709	1489.05981	172.70357	1312.15784	1462.08203	183.18823	1470.22998	1604.73401	-104.01275	1099.62585	1594.31543	441.79410	1157.79346	1621.57837	-114.49086	862.13324	1600.16187	473.23157	904.46454	1632.67188	119.54956	1043.13989	1493.32544	250.70416	1012.81366	1502.51807	143.54787	993.81708	1758.61890	45.56459	489.35205	1523.66980	339.95715	565.99225	1756.72766	56.89865	158.15860	1411.96240	288.44986	140.62003	1848.68042	
469	4.680	90.48386	1391.83972	1265.23059	213.17912	1479.86670	1277.77625	19.59930	1545.13843	1384.82324				-0.80055	1436.00891	1500.46558	328.51971	1451.84131	1485.47253	171.76598	1313.83374	1458.77136	181.58252	1469.35620	1600.92090	-105.13378	1098.21777	1586.98755	439.75986	1156.96729	1614.67883	-116.12109	859.63770	1593.92871	473.54129	904.04260	1625.15613	118.61444	1042.48120	1484.67236	250.68103	1012.07489	1495.29224	142.21361	991.33807	1750.37378	47.19166	486.98090	1516.99792	339.86523	565.23773	1748.97583	58.98457	155.24928	1406.74597	290.10638	140.99361	1846.71863	
470	4.690	89.09037	1394.98120	1260.08716	212.74286	1483.70752	1274.48718	17.66988	1547.45569	1382.40259				-2.89766	1436.09375	1496.35876	326.74234	1453.87952	1480.64038	170.43307	1314.79858	1453.97791	179.52444	1469.16101	1597.32275	-105.96539	1096.70422	1580.42725	438.42123	1156.16577	1608.30835	-117.48674	856.84625	1587.32068	473.87155	903.18488	1616.57397	118.14907	1041.07617	1477.34277	250.13344	1011.62848	1486.67212	141.42117	989.19678	1741.21411	47.64602	485.39548	1506.00610	339.21152	564.44305	1740.91223	61.97247	152.53249	1402.71973	291.70508	141.72728	1844.21375	
471	4.700	87.68193	1398.89880	1255.21289	209.61015	1486.02368	1269.80408	16.28381	1549.53369	1377.94165				-4.38426	1436.41431	1491.38696	325.49567	1454.22815	1477.38049	168.54419	1315.61499	1448.45691	178.25859	1468.54968	1592.82214	-106.81845	1096.06946	1571.80432	437.03680	1156.09546	1600.80542	-119.25497	855.81580	1581.01941	473.37317	903.32910	1608.28662	117.56921	1041.88940	1469.94775	248.73151	1011.44025	1478.83411	140.49358	988.06165	1732.77026	47.55422	485.57275	1495.14551	338.17648	563.23846	1732.07581	64.11408	149.84520	1399.66077	292.64291	141.77374	1844.14478	
